<svg xmlns="http://www.w3.org/2000/svg" width="188.349" height="26.687" viewBox="0 0 188.349 26.687"><defs><style>.a{fill:#fff;}</style></defs><g transform="translate(-269.553 -384.874)"><g transform="translate(353.017 385.047)"><path class="a" d="M350.05,390.388v.109h-.94v-5.36h-2.568v.274a.842.842,0,0,1,.776.839V393.5a2.176,2.176,0,0,1-.691.273l-.972.2-1.841.213a1.2,1.2,0,0,1-.385-.022c-.1-.029-.141-.18-.175-.454v-6.537h2.876v-1.119h-5.625v.276a.843.843,0,0,1,.775.839v7.066c0,.825.256,1.262.767,1.317a5.558,5.558,0,0,0,1.47-.034l2.189-.459a8.85,8.85,0,0,0,.872-.314,2.78,2.78,0,0,0,.739-.445v5.5h1.792V391.62h.94V399.8h1.844V385.137H350.05Z" transform="translate(-340.507 -385.001)"/><path class="a" d="M406.039,390.388v.109H405.1v-5.36h-2.566v.274a.847.847,0,0,1,.774.839V393.5a2.2,2.2,0,0,1-.69.273c-.273.056-.6.123-.97.2l-1.843.213a1.22,1.22,0,0,1-.387-.022c-.092-.029-.138-.18-.169-.454v-6.537h2.871v-1.119h-5.624v.276a.845.845,0,0,1,.776.839v7.066c0,.825.256,1.262.765,1.317a5.587,5.587,0,0,0,1.474-.034l2.188-.459a8.7,8.7,0,0,0,.869-.314,2.871,2.871,0,0,0,.741-.445v5.5H405.1V391.62h.941V399.8h1.841V385.137h-1.841Z" transform="translate(-330.636 -385.001)"/><path class="a" d="M364.343,393.54v-1.121h-2.761a10.871,10.871,0,0,0,.8-2.177,22.7,22.7,0,0,0,.587-3.538,1.191,1.191,0,0,0-.08-.525.414.414,0,0,0-.4-.263H352.61l.679,1.119h7.537c.012.847-.019,2.281-.091,3.169s-.144,1.74-.22,2.216h-9.193l.683,1.121h4.686v6.124h1.974V393.54Z" transform="translate(-338.6 -384.863)"/><path class="a" d="M371.963,385.137h-2.75v.274a.849.849,0,0,1,.776.839V399.8h1.974v-8.094h1.964v-1.117h-1.964Z" transform="translate(-335.446 -385.001)"/><path class="a" d="M369.122,385.915h-6.2l.741,1.119h3.709a15.633,15.633,0,0,1-5.08,8.988l.471.571a14.527,14.527,0,0,0,6.857-9.837,1.053,1.053,0,0,0-.011-.54C369.554,386.027,369.394,385.927,369.122,385.915Z" transform="translate(-336.667 -384.863)"/><path class="a" d="M381.3,391.121h3.968V390h-6.972a1.04,1.04,0,0,1-.568-.107c-.1-.066-.153-.181-.153-.545v-.462h7.5V387.8h-7.5v-1.083h7.685v-1.12H374.823v.276a.844.844,0,0,1,.775.838v2.917a1.267,1.267,0,0,0,.481,1.176,1.67,1.67,0,0,0,.948.319h2.324v1.152h-5.626l.68,1.115h12.657v-1.115H381.3Z" transform="translate(-334.65 -384.92)"/><path class="a" d="M377.662,397.052a.385.385,0,0,1-.058-.231v-.747h6.688a.549.549,0,0,0,.427-.209.762.762,0,0,0,.179-.511v-2.033a.38.38,0,0,0-.066-.252.287.287,0,0,0-.229-.075h-9.7l.674,1.12h7.345v.876h-8.073v.276c.521.055.779.32.779.681v.723a2.2,2.2,0,0,0,.278,1.146c.186.312.649.465,1.382.465h7.747v-1.117h-7.171A.3.3,0,0,1,377.662,397.052Z" transform="translate(-334.451 -383.615)"/><path class="a" d="M391.014,393.155A12.747,12.747,0,0,0,393.19,393a2.719,2.719,0,0,0,1.508-.746v1.933h1.974v-9.047h-2.75v.274a.845.845,0,0,1,.776.839v5a2.584,2.584,0,0,1-1.677.716c-.676.048-1.472.075-2.37.075h-1.893a.534.534,0,0,1-.426-.168.677.677,0,0,1-.149-.474v-1.3h3.687a.56.56,0,0,0,.434-.214.706.706,0,0,0,.193-.493V386.38a.4.4,0,0,0-.067-.254.3.3,0,0,0-.234-.074h-6.467l.679,1.119h4.064v1.942H385.4v.276a.841.841,0,0,1,.775.838v1.385a1.53,1.53,0,0,0,.394,1.2,1.479,1.479,0,0,0,1,.344Z" transform="translate(-332.592 -385.001)"/><path class="a" d="M396.132,393.493h-9.148l.683,1.116h6.768v3.718h1.975V393.82a.393.393,0,0,0-.067-.255A.286.286,0,0,0,396.132,393.493Z" transform="translate(-332.313 -383.527)"/><path class="a" d="M419.869,389.516V388.4h-1.961v-3.261h-2.746v.274a.845.845,0,0,1,.77.839v7.583h1.975v-4.316Z" transform="translate(-327.344 -385.001)"/><path class="a" d="M418.628,393.224H409.5l.68,1.116h6.751v4.035h1.975v-4.821a.388.388,0,0,0-.067-.256A.261.261,0,0,0,418.628,393.224Z" transform="translate(-328.343 -383.575)"/><path class="a" d="M415.406,390.02a3.052,3.052,0,0,0-.9-2.155h1.9v-1.121h-3.375v-1.723H410.27v.276a.841.841,0,0,1,.779.834v.613H407.26l.681,1.121h1.581a3.052,3.052,0,0,0-.9,2.155,3.4,3.4,0,0,0,6.785,0Zm-4.631,0c0-1.13.554-2.048,1.239-2.048s1.234.918,1.234,2.048-.552,2.047-1.234,2.047S410.775,391.151,410.775,390.02Z" transform="translate(-328.738 -385.021)"/><path class="a" d="M426.984,395.929V390.5h-1.793v5.429h-1.264V390.5h-2.571v.276a.845.845,0,0,1,.778.838v4.315h-3.227l.681,1.119H431.57v-1.119Z" transform="translate(-326.684 -384.055)"/><path class="a" d="M428.044,387.034c0,1.232,0,2.782-.06,3.924s-.233,2.935-.4,3.867h.973a19.968,19.968,0,0,0,1.048-3.57,30.358,30.358,0,0,0,.583-4.551,1.189,1.189,0,0,0-.081-.529.45.45,0,0,0-.411-.259h-9.633l.743,1.119Z" transform="translate(-326.48 -384.863)"/></g><g transform="translate(353.056 405.148)"><path class="a" d="M365.441,407.133a4.468,4.468,0,0,1-1.566.284c-1.562,0-2.168-1-2.168-2.708,0-1.417.42-2.6,2.124-2.6,1.193,0,1.659.52,1.74,1.133h-.913a.845.845,0,0,0-.9-.77c-1.046,0-1.216,1.257-1.216,2.043,0,.859.1,2.547,1.567,2.547a2.268,2.268,0,0,0,1.329-.414Z" transform="translate(-336.808 -402.109)"/><path class="a" d="M367.193,403.143l.872,2.229h-1.687Zm-1.993,4.179h.474l.572-1.588h1.948l.572,1.588h.794l-1.863-5.139h-1.432v.166c.3.046.585.055.585.361a3.394,3.394,0,0,1-.126.449Z" transform="translate(-336.192 -402.096)"/><path class="a" d="M370.173,402.541h-.526c-.6,0-.779.189-.827.749h-.212l.028-1.107h3.911l.032,1.13h-.219c0-.588-.239-.773-.825-.773h-.527v4.782h-.836Z" transform="translate(-335.591 -402.096)"/><path class="a" d="M372.937,403.2c0-.608-.048-.674-.765-.75v-.169l1.608-.175v2.368h2.075V402.2h.84v5.139h-.84v-2.5H373.78v2.5h-.843Z" transform="translate(-334.963 -402.109)"/><path class="a" d="M377.732,404.784c0-1.033.093-2.313,1.275-2.313,1.166,0,1.232,1.313,1.232,2.313,0,.979-.047,2.277-1.232,2.277C377.849,407.061,377.732,405.732,377.732,404.784Zm1.275,2.633c1.588,0,2.07-1.015,2.07-2.633,0-1.645-.482-2.675-2.07-2.675-1.653,0-2.113,1.03-2.113,2.675S377.4,407.417,379.007,407.417Z" transform="translate(-334.13 -402.109)"/><path class="a" d="M381.5,403.2c0-.642-.02-.651-.766-.75v-.169l1.6-.175V406.4c0,.575,0,.575.513.575h.655c.48,0,.9-.032.9-.75h.215l-.021,1.109h-3.1Z" transform="translate(-333.453 -402.109)"/><path class="a" d="M385.02,403.2c0-.642-.026-.651-.763-.75v-.169l1.6-.175v5.226h-.838Z" transform="translate(-332.832 -402.109)"/><path class="a" d="M390.252,407.133a4.515,4.515,0,0,1-1.57.284c-1.563,0-2.167-1-2.167-2.708,0-1.417.421-2.6,2.123-2.6,1.193,0,1.655.52,1.741,1.133h-.918a.836.836,0,0,0-.89-.77c-1.047,0-1.216,1.257-1.216,2.043,0,.859.093,2.547,1.564,2.547a2.294,2.294,0,0,0,1.333-.414Z" transform="translate(-332.434 -402.109)"/><path class="a" d="M396.316,405.353c0,1.025-.089,2.063-1.814,2.063-1.347,0-1.837-.631-1.837-1.769V403.2c0-.642-.021-.651-.761-.75v-.169l1.606-.175v3.155c0,.868,0,1.8,1.092,1.8,1.165,0,1.165-.85,1.165-1.62V402.2h.551Z" transform="translate(-331.484 -402.109)"/><path class="a" d="M396.972,403.159c0-.712-.1-.681-.762-.81v-.166h1.608l2.41,4.155h.014v-4.155h.481v5.139h-.735l-2.521-4.346h-.013v4.346h-.482Z" transform="translate(-330.725 -402.096)"/><path class="a" d="M401.418,403.2c0-.642-.026-.651-.765-.75v-.169l1.6-.175v5.226h-.838Z" transform="translate(-329.941 -402.109)"/><path class="a" d="M403.351,403.159c-.245-.7-.314-.7-.922-.81v-.166h1.481l1.5,4.182h.016l1.459-4.182h.5l-1.865,5.139h-.665Z" transform="translate(-329.628 -402.096)"/><path class="a" d="M407.669,403.22c0-.756-.027-.756-.727-.872v-.166H410.6l.026,1.13h-.214c0-.613-.325-.773-.826-.773h-.6c-.382,0-.485.031-.485.4v1.517h.928c.523,0,.582-.334.628-.585h.213v1.6h-.213c0-.413-.169-.661-.628-.661h-.928v1.707c0,.425.1.443.485.443h.848c.436,0,.642-.153.69-.75h.208l-.02,1.109h-3.048Z" transform="translate(-328.833 -402.096)"/><path class="a" d="M412.154,403.229c0-.548,0-.688.512-.688.642,0,1.114.229,1.114,1.053,0,.856-.693,1-1.192,1h-.434Zm-.84,4.094h.84v-2.374h.473l1.355,2.374h.876l-1.4-2.513a1.2,1.2,0,0,0,1.168-1.262c0-1.364-1.582-1.364-2.154-1.364h-1.881v.166c.713.115.727.115.727.872Z" transform="translate(-328.19 -402.096)"/><path class="a" d="M417.655,402.814a3.371,3.371,0,0,0-1.367-.342.682.682,0,0,0-.735.736c0,1.177,2.484,1.069,2.484,2.708,0,1.09-.863,1.5-1.919,1.5a5.7,5.7,0,0,1-1.335-.2V406.6a3.2,3.2,0,0,0,1.457.458.839.839,0,0,0,.956-.9c0-1.236-2.481-1.121-2.481-2.734,0-.84.64-1.322,1.713-1.322a6.414,6.414,0,0,1,1.226.141Z" transform="translate(-327.462 -402.109)"/><path class="a" d="M418.6,403.2c0-.642-.021-.651-.766-.75v-.169l1.6-.175v5.226H418.6Z" transform="translate(-326.912 -402.109)"/><path class="a" d="M421.345,402.541h-.522c-.6,0-.778.189-.826.749h-.212l.026-1.107h3.91l.034,1.13h-.215c0-.588-.243-.773-.832-.773h-.521v4.782h-.842Z" transform="translate(-326.568 -402.096)"/><path class="a" d="M425.261,404.925l-1.23-2.063a.894.894,0,0,0-.841-.513v-.166h1.426l1.294,2.251,1.336-2.251h.492l-1.634,2.742v2.4h-.842Z" transform="translate(-325.968 -402.096)"/><path class="a" d="M342.109,403c0-.354.179-.411.622-.411,1.439,0,1.6.867,1.6,2.215,0,1.543-.307,2.208-1.7,2.208-.523,0-.523-.209-.523-.507Zm-.847,4.37H342.4c1.493,0,2.767-.169,2.767-2.584,0-2.157-1.06-2.554-2.513-2.554H340.54v.169c.7.113.722.113.722.869Z" transform="translate(-340.54 -402.087)"/><path class="a" d="M346.748,403.193l.87,2.226h-1.691Zm-2,4.176h.475l.573-1.587h1.948l.575,1.587h.792l-1.868-5.138h-1.432v.169c.308.044.587.053.587.356a2.877,2.877,0,0,1-.129.449Z" transform="translate(-339.797 -402.087)"/><path class="a" d="M349.21,403.27c0-.756-.026-.756-.732-.869v-.169h3.664l.02,1.129h-.214c0-.613-.318-.772-.825-.772h-.593c-.385,0-.483.029-.483.4v1.52h.925c.531,0,.581-.336.626-.587h.214v1.6H351.6c0-.411-.165-.659-.626-.659h-.925v1.7c0,.429.1.445.483.445h.845c.436,0,.639-.152.688-.749h.215l-.021,1.107H349.21Z" transform="translate(-339.14 -402.087)"/><path class="a" d="M356.245,407.151a5.84,5.84,0,0,1-1.72.314c-1.654,0-2.18-1.061-2.18-2.734,0-1.513.465-2.571,2.146-2.571,1.135,0,1.634.522,1.7,1.129h-.918a.838.838,0,0,0-.886-.769c-1.093,0-1.2,1.281-1.2,2.271,0,1.263.323,2.319,1.515,2.319a1.989,1.989,0,0,0,.712-.132v-1.55c0-.688-.1-.673-.767-.8v-.172h1.6Z" transform="translate(-338.458 -402.1)"/><path class="a" d="M360.242,405.4c0,1.028-.091,2.062-1.816,2.062-1.349,0-1.834-.631-1.834-1.769v-2.443c0-.643-.024-.652-.762-.752v-.168l1.6-.173v3.151c0,.871,0,1.8,1.093,1.8,1.17,0,1.17-.85,1.17-1.622v-3.244h.548Z" transform="translate(-337.844 -402.1)"/></g><g transform="translate(269.553 384.874)"><path class="a" d="M309.478,402.083c-.656,2.994-2.263,4.508-4.848,4.508a4.677,4.677,0,0,1-3.872-1.73q-1.387-1.727-1.387-6.59,0-8.42,5.1-8.414c2.794,0,4.295,1.642,4.539,4.876h6.83c-.009-.065-.021-.129-.029-.192h0v-9.6h-5.34v1.176a13.089,13.089,0,0,0-5.873-1.2,11.609,11.609,0,0,0-9.116,3.727,13.8,13.8,0,0,0-3.338,9.566q0,6.243,3.451,9.78a11.973,11.973,0,0,0,8.962,3.536,12.654,12.654,0,0,0,5.973-1.363v1.352h5.339v-9.381h-.007c0-.019.006-.035.008-.052Z" transform="translate(-265.57 -384.866)"/><path class="a" d="M339.959,384.911h-9.579v5.337h1.3v11.36a9.111,9.111,0,0,1-.363,3.005,2.88,2.88,0,0,1-1.459,1.532,4.809,4.809,0,0,1-1.087.393,9.689,9.689,0,0,1-1.079.06,5.863,5.863,0,0,1-2.7-.567,2.88,2.88,0,0,1-1.468-1.53,9.029,9.029,0,0,1-.367-3.005V390.266h1.359v-5.339h-9.74v5.339h1.5v11.229a11.767,11.767,0,0,0,1.149,5.806,7.543,7.543,0,0,0,3.458,3.064,11.859,11.859,0,0,0,3.617.935,19.634,19.634,0,0,0,3.258.254,14.772,14.772,0,0,0,6.179-1.076,7.505,7.505,0,0,0,3.438-3.062,11.819,11.819,0,0,0,1.145-5.809v-11.36h1.44Z" transform="translate(-261.581 -384.867)"/><path class="a" d="M281.135,384.874c-.221,0-.439.007-.656.015h-10.9v5.48h1.91v3.978h0v7.368h0V406.1h-1.934v5.457h11.668v0A11.159,11.159,0,0,0,290,407.819a14.044,14.044,0,0,0,3.262-9.589q0-6.264-3.37-9.807A11.54,11.54,0,0,0,281.135,384.874Zm.089,21.734c-.059,0-.114,0-.172-.007h-4.215V389.827H281.2v.006a4.494,4.494,0,0,1,3.649,1.728q1.355,1.733,1.354,6.609Q286.206,406.608,281.224,406.607Z" transform="translate(-269.553 -384.874)"/></g></g></svg>